<?xml version="1.0" encoding="UTF-8"?>
<svg xmlns="http://www.w3.org/2000/svg" xmlns:xlink="http://www.w3.org/1999/xlink" width="720pt" height="360pt" viewBox="0 0 720 360">
<rect x="-72" y="-36" width="864" height="432" fill="rgb(100%, 100%, 100%)" fill-opacity="1"/>
<path fill="none" stroke-width="4.267913" stroke-linecap="butt" stroke-linejoin="round" stroke="rgb(0%, 40%, 80%)" stroke-opacity="1" stroke-miterlimit="10" d="M 32.726562 16.363281 L 39.339844 20.082031 L 45.949219 30.839844 L 52.5625 47.476562 L 59.171875 68.246094 L 65.785156 91.042969 L 72.398438 113.699219 L 79.007812 134.277344 L 85.621094 151.324219 L 92.230469 164.046875 L 98.84375 172.421875 L 105.453125 177.136719 L 112.066406 179.5 L 118.675781 181.191406 L 125.289062 183.996094 L 131.902344 189.527344 L 138.511719 198.949219 L 145.125 212.785156 L 151.734375 230.816406 L 158.347656 252.074219 L 164.957031 274.960938 L 171.570312 297.457031 L 178.183594 317.378906 L 184.792969 332.691406 L 191.40625 341.769531 L 198.015625 343.636719 L 204.628906 338.085938 L 211.238281 325.726562 L 217.851562 307.875 L 224.460938 286.394531 L 231.074219 263.433594 L 237.6875 241.128906 L 244.296875 221.320312 L 250.910156 205.308594 L 257.519531 193.699219 L 264.132812 186.335938 L 270.742188 182.34375 L 277.355469 180.316406 L 283.96875 178.515625 L 290.578125 175.167969 L 297.191406 168.75 L 303.800781 158.246094 L 310.414062 143.308594 L 317.023438 124.355469 L 323.636719 102.519531 L 330.246094 79.527344 L 336.859375 57.472656 L 343.472656 38.523438 L 350.082031 24.640625 L 356.695312 17.300781 L 363.304688 17.300781 L 369.917969 24.640625 L 376.527344 38.523438 L 383.140625 57.472656 L 389.753906 79.527344 L 396.363281 102.519531 L 402.976562 124.355469 L 409.585938 143.308594 L 416.199219 158.246094 L 422.808594 168.75 L 429.421875 175.167969 L 436.03125 178.515625 L 442.644531 180.316406 L 449.257812 182.34375 L 455.867188 186.335938 L 462.480469 193.699219 L 469.089844 205.308594 L 475.703125 221.320312 L 482.3125 241.128906 L 488.925781 263.433594 L 495.539062 286.394531 L 502.148438 307.875 L 508.761719 325.726562 L 515.371094 338.085938 L 521.984375 343.636719 L 528.59375 341.769531 L 535.207031 332.691406 L 541.816406 317.378906 L 548.429688 297.457031 L 555.042969 274.960938 L 561.652344 252.074219 L 568.265625 230.816406 L 574.875 212.785156 L 581.488281 198.949219 L 588.097656 189.527344 L 594.710938 183.996094 L 601.324219 181.191406 L 607.933594 179.5 L 614.546875 177.136719 L 621.15625 172.421875 L 627.769531 164.046875 L 634.378906 151.324219 L 640.992188 134.277344 L 647.601562 113.699219 L 654.214844 91.042969 L 660.828125 68.246094 L 667.4375 47.476562 L 674.050781 30.839844 L 680.660156 20.082031 L 687.273438 16.363281 "/>
</svg>
